<svg id="Laag_1" data-name="Laag 1" xmlns="http://www.w3.org/2000/svg" xmlns:xlink="http://www.w3.org/1999/xlink" viewBox="0 0 559.67 177.86"><defs><style>.cls-1,.cls-10,.cls-12,.cls-2,.cls-3,.cls-4{fill:none;}.cls-1,.cls-10,.cls-11,.cls-12,.cls-2,.cls-3,.cls-4,.cls-6,.cls-7,.cls-8,.cls-9{stroke:#1d1d1b;stroke-miterlimit:10;}.cls-1{stroke-width:2.84px;}.cls-2{stroke-width:0.29px;}.cls-3{stroke-width:3px;}.cls-4{stroke-width:0.31px;}.cls-5{fill:#cd7115;}.cls-12,.cls-6,.cls-7,.cls-8,.cls-9{stroke-width:0.88px;}.cls-6{fill:url(#Naamloos_verloop_24);}.cls-7{fill:#964d15;}.cls-11,.cls-8{fill:#b2b2b2;}.cls-9{fill:url(#Naamloos_verloop_24-2);}.cls-10,.cls-11{stroke-width:1.3px;}.cls-13{font-size:30px;fill:#1d1d1b;font-family:GillSans-UltraBold, Gill Sans Ultra Bold;font-weight:700;}</style><radialGradient id="Naamloos_verloop_24" cx="273.04" cy="79.88" r="12.94" gradientUnits="userSpaceOnUse"><stop offset="0" stop-color="#878787"/><stop offset="1" stop-color="#1d1d1b"/></radialGradient><radialGradient id="Naamloos_verloop_24-2" cx="273.17" cy="140.2" r="19.14" xlink:href="#Naamloos_verloop_24"/></defs><path class="cls-1" d="M337.46,347.3" transform="translate(-17.76 -280.82)"/><path class="cls-1" d="M337.46,347.3" transform="translate(-17.76 -280.82)"/><polyline class="cls-1" points="227.25 31.88 230.7 29.59 320.57 174.5 317.36 176.64"/><path class="cls-1" d="M240.65,312.81" transform="translate(-17.76 -280.82)"/><path class="cls-1" d="M240.65,312.81" transform="translate(-17.76 -280.82)"/><line class="cls-2" x1="226.87" y1="30.81" x2="318.12" y2="177.79"/><polyline class="cls-3" points="311.93 28.56 308.15 26.38 228.5 172.81 232.02 174.84"/><path class="cls-1" d="M342.4,319.23" transform="translate(-17.76 -280.82)"/><path class="cls-1" d="M342.4,319.23" transform="translate(-17.76 -280.82)"/><line class="cls-4" x1="312.22" y1="27.38" x2="231.35" y2="176.13"/><path class="cls-5" d="M318.08,401.59c-3.4-5.24-8.47-9.74-9.64-15.87-1.48-7.71,3.71-15,5-22.78a23.26,23.26,0,1,0-45.95-.31c1,6.95,5.21,13.25,5.54,20.28.55,11.43-8.93,20.79-11.81,31.86a29.13,29.13,0,0,0,9.07,28.83c5.13,4.38,13.57,6.4,21.54,6.2h0a18.12,18.12,0,0,0,2.84-.17,17.76,17.76,0,0,0,7.2-1.84h0c7.49-2.7,14.33-7.71,17.78-14.36A32.31,32.31,0,0,0,318.08,401.59Z" transform="translate(-17.76 -280.82)"/><ellipse class="cls-6" cx="273.04" cy="79.88" rx="12.55" ry="13.32"/><path class="cls-7" d="M294.83,336" transform="translate(-17.76 -280.82)"/><path class="cls-5" d="M287.9,280.83H293l3.17,11.76-3,4.21,1.25,39.66a22.44,22.44,0,0,0-8.68,0L287,296.79l-3-4.21,3.16-11.76H293" transform="translate(-17.76 -280.82)"/><line class="cls-8" x1="271.62" y1="66.51" x2="271.62" y2="93.15"/><line class="cls-8" x1="274.09" y1="66.51" x2="274.09" y2="93.15"/><line class="cls-8" x1="276.56" y1="67.11" x2="276.56" y2="92.64"/><line class="cls-8" x1="279.03" y1="68.22" x2="279.03" y2="91.44"/><line class="cls-8" x1="262.01" y1="73.64" x2="262.01" y2="86.51"/><line class="cls-8" x1="264.48" y1="70.23" x2="264.48" y2="89.33"/><line class="cls-8" x1="266.95" y1="68.42" x2="266.95" y2="91.44"/><line class="cls-8" x1="269.42" y1="66.74" x2="269.42" y2="92.34"/><line class="cls-8" x1="281.19" y1="69.92" x2="281.19" y2="90.03"/><line class="cls-8" x1="283.66" y1="72.64" x2="283.66" y2="86.91"/><line class="cls-8" x1="285.47" y1="78.71" x2="260.64" y2="78.71"/><line class="cls-8" x1="285.37" y1="81.18" x2="260.74" y2="81.18"/><line class="cls-8" x1="284.86" y1="83.65" x2="261.34" y2="83.65"/><line class="cls-8" x1="283.86" y1="86.12" x2="261.65" y2="86.12"/><line class="cls-8" x1="280.24" y1="69.1" x2="265.76" y2="69.1"/><line class="cls-8" x1="282.86" y1="71.57" x2="263.35" y2="71.57"/><line class="cls-8" x1="284.67" y1="74.04" x2="261.65" y2="74.04"/><line class="cls-8" x1="285.17" y1="76.51" x2="260.74" y2="76.51"/><line class="cls-8" x1="282.55" y1="88.28" x2="263.05" y2="88.28"/><line class="cls-8" x1="280.44" y1="90.75" x2="266.47" y2="91.03"/><ellipse class="cls-9" cx="273.17" cy="140.2" rx="18.57" ry="19.7"/><line class="cls-8" x1="271.07" y1="120.42" x2="271.07" y2="159.82"/><line class="cls-8" x1="274.73" y1="120.42" x2="274.73" y2="159.82"/><line class="cls-8" x1="278.38" y1="121.31" x2="278.38" y2="159.07"/><line class="cls-8" x1="282.04" y1="122.95" x2="282.04" y2="157.29"/><line class="cls-10" x1="256.86" y1="130.97" x2="256.86" y2="150"/><line class="cls-8" x1="260.51" y1="125.92" x2="260.51" y2="154.17"/><line class="cls-8" x1="264.17" y1="123.24" x2="264.17" y2="157.29"/><line class="cls-8" x1="267.82" y1="120.76" x2="267.82" y2="158.63"/><line class="cls-8" x1="285.23" y1="125.47" x2="285.23" y2="155.21"/><line class="cls-11" x1="288.88" y1="129.49" x2="288.88" y2="150.6"/><line class="cls-8" x1="291.55" y1="138.47" x2="254.83" y2="138.47"/><line class="cls-8" x1="291.4" y1="142.13" x2="254.98" y2="142.13"/><line class="cls-8" x1="290.66" y1="145.78" x2="255.87" y2="145.78"/><line class="cls-8" x1="289.17" y1="149.43" x2="256.32" y2="149.43"/><line class="cls-8" x1="283.82" y1="124.25" x2="262.41" y2="124.25"/><line class="cls-8" x1="287.69" y1="127.91" x2="258.84" y2="127.91"/><line class="cls-8" x1="290.37" y1="131.56" x2="256.32" y2="131.56"/><line class="cls-8" x1="291.11" y1="135.22" x2="254.98" y2="135.22"/><line class="cls-8" x1="287.24" y1="152.62" x2="258.4" y2="152.62"/><line class="cls-8" x1="284.12" y1="156.28" x2="263.45" y2="156.69"/><path class="cls-12" d="M284.08,426.47c-2.4-1.27-3.4-12.42-3.32-15.3a22.71,22.71,0,0,1,2.3-8.2,27.16,27.16,0,0,0,2.58-8.13c.46-4.95-1.85-9.63-3.32-14.34-3.11-10-2.54-13.57,1.71-23" transform="translate(-17.76 -280.82)"/><path class="cls-12" d="M287.81,426.64c-2.39-1.27-3.4-12.74-3.32-15.61a22.52,22.52,0,0,1,2.31-8.2,27.54,27.54,0,0,0,2.58-8.13c.46-4.95-1.86-9.63-3.33-14.35-3.11-10-2.55-13.52,1.7-23" transform="translate(-17.76 -280.82)"/><path class="cls-12" d="M294.21,426.56c-2.4-1.26-3.77-12.05-3.69-14.93a22.52,22.52,0,0,1,2.31-8.2,27.45,27.45,0,0,0,2.58-8.13c.46-4.95-1.85-9.63-3.33-14.34-3.11-10-2.62-14.23,1.62-23.68" transform="translate(-17.76 -280.82)"/><path class="cls-12" d="M298.67,426.54c-2.4-1.27-3.4-11.73-3.32-14.61a22.76,22.76,0,0,1,2.3-8.2,27.19,27.19,0,0,0,2.58-8.12c.46-5-1.85-9.64-3.32-14.35-3.11-10-2.63-14.43,1.62-23.88" transform="translate(-17.76 -280.82)"/><path class="cls-8" d="M288.65,292.14" transform="translate(-17.76 -280.82)"/><path class="cls-8" d="M287.44,336.17" transform="translate(-17.76 -280.82)"/><path class="cls-8" d="M291.36,292.74" transform="translate(-17.76 -280.82)"/><path class="cls-8" d="M292.27,336.17" transform="translate(-17.76 -280.82)"/><line class="cls-8" x1="269.68" y1="55.35" x2="270.89" y2="11.32"/><line class="cls-8" x1="274.51" y1="55.35" x2="273.61" y2="11.92"/><line class="cls-8" x1="272.4" y1="55.35" x2="272.4" y2="11.62"/><line class="cls-12" x1="268.93" y1="11.62" x2="275.57" y2="11.62"/><text class="cls-13" transform="translate(0 115.01)">SYMPHONIC</text><text class="cls-13" transform="translate(324.94 115.01)">SYMPHONY</text></svg>