<svg id="Laag_1" data-name="Laag 1" xmlns="http://www.w3.org/2000/svg" viewBox="0 0 841.89 595.28"><defs><style>.cls-1{fill:#fff;}.cls-2{fill:#c35c17;}.cls-3{fill:none;}</style></defs><rect class="cls-1" width="841.89" height="595.28"/><rect class="cls-2" width="139.96" height="595.28"/><rect class="cls-2" x="701.93" width="139.96" height="595.28"/><polygon class="cls-3" points="0 394.55 141.24 313 0 231.46 0 394.55"/><polygon class="cls-1" points="214.01 326.27 201.56 347.83 141.24 313 0 394.55 0 481.56 227.75 350.07 214.01 326.27"/><polygon class="cls-1" points="141.24 313 190.07 284.81 214.01 326.27 239.24 282.57 0 144.45 0 231.46 141.24 313"/><polygon class="cls-1" points="141.24 313 201.56 347.83 214.01 326.27 190.07 284.81 141.24 313"/><polygon class="cls-3" points="841.89 394 841.89 232 701.59 313 841.89 394"/><polygon class="cls-1" points="701.59 313 641.27 347.83 628.82 326.27 615.09 350.07 841.89 481.01 841.89 394 701.59 313"/><polygon class="cls-1" points="701.59 313 841.89 232 841.89 144.99 603.59 282.57 628.82 326.27 652.76 284.81 701.59 313"/><polygon class="cls-1" points="701.59 313 652.76 284.81 628.82 326.27 641.27 347.83 701.59 313"/></svg>